<mxfile host="65bd71144e">
    <diagram id="A_tYOe9iZ1WcpGx81PBD" name="Page-1">
        <mxGraphModel dx="1906" dy="1744" grid="1" gridSize="10" guides="1" tooltips="1" connect="1" arrows="1" fold="1" page="1" pageScale="1" pageWidth="827" pageHeight="1169" math="0" shadow="0">
            <root>
                <mxCell id="0"/>
                <mxCell id="1" parent="0"/>
                <mxCell id="91" style="edgeStyle=none;html=1;entryX=0.5;entryY=0;entryDx=0;entryDy=0;" parent="1" source="24" target="90" edge="1">
                    <mxGeometry relative="1" as="geometry"/>
                </mxCell>
                <mxCell id="24" value="&lt;font style=&quot;font-size: 18px&quot;&gt;Start&lt;/font&gt;" style="strokeWidth=2;html=1;shape=mxgraph.flowchart.terminator;whiteSpace=wrap;" parent="1" vertex="1">
                    <mxGeometry width="160" height="80" as="geometry"/>
                </mxCell>
                <mxCell id="25" value="&lt;font style=&quot;font-size: 18px&quot;&gt;Stop&lt;/font&gt;" style="strokeWidth=2;html=1;shape=mxgraph.flowchart.terminator;whiteSpace=wrap;" parent="1" vertex="1">
                    <mxGeometry x="400" width="160" height="80" as="geometry"/>
                </mxCell>
                <mxCell id="29" style="edgeStyle=none;html=1;entryX=0.5;entryY=0;entryDx=0;entryDy=0;fontSize=18;" parent="1" edge="1">
                    <mxGeometry relative="1" as="geometry">
                        <mxPoint x="80" y="440" as="targetPoint"/>
                        <mxPoint x="80" y="400" as="sourcePoint"/>
                    </mxGeometry>
                </mxCell>
                <mxCell id="59" style="edgeStyle=none;html=1;entryX=0.5;entryY=1;entryDx=0;entryDy=0;entryPerimeter=0;fontFamily=Helvetica;fontSize=15;fontColor=default;" parent="1" source="47" target="25" edge="1">
                    <mxGeometry relative="1" as="geometry"/>
                </mxCell>
                <mxCell id="47" value="Show the &lt;br&gt;program &lt;br&gt;as done" style="shape=parallelogram;html=1;strokeWidth=2;perimeter=parallelogramPerimeter;whiteSpace=wrap;rounded=1;arcSize=12;size=0.23;fontSize=18;" parent="1" vertex="1">
                    <mxGeometry x="400" y="120" width="160" height="80" as="geometry"/>
                </mxCell>
                <mxCell id="77" style="edgeStyle=none;html=1;entryX=0.5;entryY=0;entryDx=0;entryDy=0;fontSize=13;" parent="1" edge="1">
                    <mxGeometry relative="1" as="geometry">
                        <mxPoint x="80" y="200" as="sourcePoint"/>
                        <mxPoint x="80" y="240" as="targetPoint"/>
                    </mxGeometry>
                </mxCell>
                <mxCell id="54" value="&lt;font style=&quot;font-size: 15px&quot;&gt;Yes&lt;/font&gt;" style="text;html=1;align=center;verticalAlign=middle;resizable=0;points=[];autosize=1;strokeColor=none;fillColor=none;fontSize=8;fontFamily=Helvetica;fontColor=default;" parent="1" vertex="1">
                    <mxGeometry x="80" y="720" width="40" height="20" as="geometry"/>
                </mxCell>
                <mxCell id="72" style="edgeStyle=orthogonalEdgeStyle;rounded=0;html=1;entryX=0.5;entryY=1;entryDx=0;entryDy=0;exitX=1;exitY=0.5;exitDx=0;exitDy=0;" parent="1" source="152" target="47" edge="1">
                    <mxGeometry relative="1" as="geometry">
                        <mxPoint x="520" y="320" as="targetPoint"/>
                        <mxPoint x="480" y="600" as="sourcePoint"/>
                    </mxGeometry>
                </mxCell>
                <mxCell id="125" style="edgeStyle=none;html=1;" parent="1" source="79" target="119" edge="1">
                    <mxGeometry relative="1" as="geometry"/>
                </mxCell>
                <mxCell id="153" style="edgeStyle=orthogonalEdgeStyle;rounded=0;html=1;entryX=0;entryY=0.5;entryDx=0;entryDy=0;" parent="1" source="79" target="152" edge="1">
                    <mxGeometry relative="1" as="geometry"/>
                </mxCell>
                <mxCell id="79" value="&lt;font style=&quot;font-size: 18px&quot;&gt;&lt;span style=&quot;font-size: 18px&quot;&gt;if integer &amp;lt; 0&lt;/span&gt;&lt;br style=&quot;font-size: 18px&quot;&gt;&lt;/font&gt;" style="rhombus;whiteSpace=wrap;html=1;rounded=1;fontFamily=Helvetica;fontSize=18;fontColor=default;strokeColor=default;strokeWidth=2;fillColor=default;" parent="1" vertex="1">
                    <mxGeometry y="560" width="160" height="160" as="geometry"/>
                </mxCell>
                <mxCell id="85" style="edgeStyle=none;html=1;entryX=0;entryY=0.5;entryDx=0;entryDy=0;fontSize=13;" parent="1" source="80" target="84" edge="1">
                    <mxGeometry relative="1" as="geometry"/>
                </mxCell>
                <mxCell id="80" value="&lt;font&gt;&lt;font style=&quot;font-size: 18px&quot;&gt;try&lt;/font&gt;&lt;br&gt;&lt;/font&gt;" style="rhombus;whiteSpace=wrap;html=1;rounded=1;fontFamily=Helvetica;fontSize=11;fontColor=default;strokeColor=default;strokeWidth=2;fillColor=default;" parent="1" vertex="1">
                    <mxGeometry y="240" width="160" height="160" as="geometry"/>
                </mxCell>
                <mxCell id="83" value="&lt;font style=&quot;font-size: 15px&quot;&gt;Yes&lt;/font&gt;" style="text;html=1;align=center;verticalAlign=middle;resizable=0;points=[];autosize=1;strokeColor=none;fillColor=none;fontSize=8;fontFamily=Helvetica;fontColor=default;" parent="1" vertex="1">
                    <mxGeometry x="80" y="400" width="40" height="20" as="geometry"/>
                </mxCell>
                <mxCell id="87" style="edgeStyle=none;html=1;entryX=0;entryY=0.5;entryDx=0;entryDy=0;fontSize=13;rounded=0;" parent="1" source="84" target="47" edge="1">
                    <mxGeometry relative="1" as="geometry">
                        <Array as="points">
                            <mxPoint x="280" y="160"/>
                        </Array>
                    </mxGeometry>
                </mxCell>
                <mxCell id="84" value="&lt;font style=&quot;font-size: 13px&quot;&gt;Show the chosen &lt;br&gt;number as not &lt;br style=&quot;font-size: 13px&quot;&gt;an integer&lt;/font&gt;" style="shape=parallelogram;html=1;strokeWidth=2;perimeter=parallelogramPerimeter;whiteSpace=wrap;rounded=1;arcSize=12;size=0.23;fontSize=13;" parent="1" vertex="1">
                    <mxGeometry x="200" y="280" width="160" height="80" as="geometry"/>
                </mxCell>
                <mxCell id="86" value="&lt;font style=&quot;font-size: 15px&quot;&gt;exception&lt;/font&gt;" style="text;html=1;align=center;verticalAlign=middle;resizable=0;points=[];autosize=1;strokeColor=none;fillColor=none;fontSize=8;fontFamily=Helvetica;fontColor=default;" parent="1" vertex="1">
                    <mxGeometry x="140" y="290" width="80" height="20" as="geometry"/>
                </mxCell>
                <mxCell id="124" style="edgeStyle=none;html=1;" parent="1" source="88" target="79" edge="1">
                    <mxGeometry relative="1" as="geometry"/>
                </mxCell>
                <mxCell id="88" value="integer = int(number)" style="whiteSpace=wrap;html=1;fontSize=18;strokeWidth=2;rounded=1;arcSize=12;" parent="1" vertex="1">
                    <mxGeometry y="440" width="160" height="80" as="geometry"/>
                </mxCell>
                <mxCell id="90" value="Set a number" style="shape=parallelogram;html=1;strokeWidth=2;perimeter=parallelogramPerimeter;whiteSpace=wrap;rounded=1;arcSize=12;size=0.23;fontSize=18;" parent="1" vertex="1">
                    <mxGeometry y="120" width="160" height="80" as="geometry"/>
                </mxCell>
                <mxCell id="149" style="edgeStyle=orthogonalEdgeStyle;html=1;entryX=0;entryY=0.5;entryDx=0;entryDy=0;rounded=0;exitX=0;exitY=0.5;exitDx=0;exitDy=0;" parent="1" source="93" target="128" edge="1">
                    <mxGeometry relative="1" as="geometry">
                        <Array as="points">
                            <mxPoint x="360" y="1080"/>
                            <mxPoint x="360" y="800"/>
                        </Array>
                    </mxGeometry>
                </mxCell>
                <mxCell id="93" value="&lt;font style=&quot;font-size: 18px&quot;&gt;while count &amp;lt; integer&lt;br style=&quot;font-size: 18px&quot;&gt;&lt;/font&gt;" style="rhombus;whiteSpace=wrap;html=1;rounded=1;fontFamily=Helvetica;fontSize=18;fontColor=default;strokeColor=default;strokeWidth=2;fillColor=default;verticalAlign=middle;" parent="1" vertex="1">
                    <mxGeometry x="400" y="1000" width="160" height="160" as="geometry"/>
                </mxCell>
                <mxCell id="94" value="No" style="text;html=1;align=center;verticalAlign=middle;resizable=0;points=[];autosize=1;strokeColor=none;fillColor=none;fontSize=15;fontFamily=Helvetica;fontColor=default;" parent="1" vertex="1">
                    <mxGeometry x="560" y="1060" width="30" height="20" as="geometry"/>
                </mxCell>
                <mxCell id="95" value="&lt;font style=&quot;font-size: 15px&quot;&gt;Yes&lt;/font&gt;" style="text;html=1;align=center;verticalAlign=middle;resizable=0;points=[];autosize=1;strokeColor=none;fillColor=none;fontSize=8;fontFamily=Helvetica;fontColor=default;" parent="1" vertex="1">
                    <mxGeometry x="360" y="1060" width="40" height="20" as="geometry"/>
                </mxCell>
                <mxCell id="97" value="" style="edgeStyle=orthogonalEdgeStyle;html=1;rounded=0;exitX=1;exitY=0.5;exitDx=0;exitDy=0;endArrow=classic;entryX=0.456;entryY=1.025;entryDx=0;entryDy=0;endFill=1;entryPerimeter=0;" parent="1" source="93" target="154" edge="1">
                    <mxGeometry relative="1" as="geometry">
                        <Array as="points">
                            <mxPoint x="673" y="1080"/>
                        </Array>
                        <mxPoint x="630" y="840" as="targetPoint"/>
                        <mxPoint x="541.5999999999999" y="840" as="sourcePoint"/>
                    </mxGeometry>
                </mxCell>
                <mxCell id="122" style="edgeStyle=none;html=1;entryX=0;entryY=0.5;entryDx=0;entryDy=0;exitX=1;exitY=0.5;exitDx=0;exitDy=0;" parent="1" source="119" target="132" edge="1">
                    <mxGeometry relative="1" as="geometry">
                        <mxPoint x="80" y="880" as="targetPoint"/>
                    </mxGeometry>
                </mxCell>
                <mxCell id="119" value="&lt;div&gt;answer = 1&lt;/div&gt;" style="whiteSpace=wrap;html=1;fontSize=18;strokeWidth=2;rounded=1;arcSize=12;" parent="1" vertex="1">
                    <mxGeometry y="760" width="160" height="80" as="geometry"/>
                </mxCell>
                <mxCell id="138" style="edgeStyle=none;rounded=0;html=1;entryX=0.5;entryY=0;entryDx=0;entryDy=0;" parent="1" source="128" target="136" edge="1">
                    <mxGeometry relative="1" as="geometry"/>
                </mxCell>
                <mxCell id="128" value="answer = answer * counter" style="whiteSpace=wrap;html=1;fontSize=18;strokeWidth=2;rounded=1;arcSize=12;" parent="1" vertex="1">
                    <mxGeometry x="400" y="760" width="160" height="80" as="geometry"/>
                </mxCell>
                <mxCell id="150" style="edgeStyle=orthogonalEdgeStyle;rounded=0;html=1;entryX=0;entryY=0.5;entryDx=0;entryDy=0;" parent="1" source="132" target="128" edge="1">
                    <mxGeometry relative="1" as="geometry">
                        <mxPoint x="190" y="930" as="targetPoint"/>
                        <Array as="points"/>
                    </mxGeometry>
                </mxCell>
                <mxCell id="132" value="&lt;div&gt;&lt;span&gt;counter = 1&lt;/span&gt;&lt;br&gt;&lt;/div&gt;" style="whiteSpace=wrap;html=1;fontSize=18;strokeWidth=2;rounded=1;arcSize=12;" parent="1" vertex="1">
                    <mxGeometry x="200" y="760" width="160" height="80" as="geometry"/>
                </mxCell>
                <mxCell id="151" style="edgeStyle=orthogonalEdgeStyle;rounded=0;html=1;entryX=0.5;entryY=0;entryDx=0;entryDy=0;" parent="1" source="136" target="93" edge="1">
                    <mxGeometry relative="1" as="geometry"/>
                </mxCell>
                <mxCell id="136" value="counter = counter + 1" style="whiteSpace=wrap;html=1;fontSize=18;strokeWidth=2;rounded=1;arcSize=12;" parent="1" vertex="1">
                    <mxGeometry x="400" y="880" width="160" height="80" as="geometry"/>
                </mxCell>
                <mxCell id="148" value="No" style="text;html=1;align=center;verticalAlign=middle;resizable=0;points=[];autosize=1;strokeColor=none;fillColor=none;fontSize=15;fontFamily=Helvetica;fontColor=default;" parent="1" vertex="1">
                    <mxGeometry x="160" y="620" width="30" height="20" as="geometry"/>
                </mxCell>
                <mxCell id="152" value="&lt;font style=&quot;font-size: 13px&quot;&gt;Show the chosen &lt;br&gt;integer as negative&lt;/font&gt;" style="shape=parallelogram;html=1;strokeWidth=2;perimeter=parallelogramPerimeter;whiteSpace=wrap;rounded=1;arcSize=12;size=0.23;fontSize=13;" parent="1" vertex="1">
                    <mxGeometry x="200" y="600" width="160" height="80" as="geometry"/>
                </mxCell>
                <mxCell id="155" style="edgeStyle=orthogonalEdgeStyle;rounded=0;html=1;entryX=1;entryY=0.5;entryDx=0;entryDy=0;fontSize=18;" parent="1" source="154" target="47" edge="1">
                    <mxGeometry relative="1" as="geometry"/>
                </mxCell>
                <mxCell id="154" value="&lt;font style=&quot;font-size: 18px&quot;&gt;Show the&lt;br&gt;answer&lt;/font&gt;" style="shape=parallelogram;html=1;strokeWidth=2;perimeter=parallelogramPerimeter;whiteSpace=wrap;rounded=1;arcSize=12;size=0.23;fontSize=18;" parent="1" vertex="1">
                    <mxGeometry x="600" y="120" width="160" height="80" as="geometry"/>
                </mxCell>
            </root>
        </mxGraphModel>
    </diagram>
</mxfile>